<?xml version="1.0" encoding="UTF-8" standalone="no"?>
<!-- Created with Inkscape (http://www.inkscape.org/) -->

<svg
   width="225mm"
   height="225mm"
   viewBox="0 0 225 225"
   version="1.1"
   id="svg5"
   inkscape:version="1.1.1 (3bf5ae0d25, 2021-09-20)"
   sodipodi:docname="pmLogoWhite.svg"
   xmlns:inkscape="http://www.inkscape.org/namespaces/inkscape"
   xmlns:sodipodi="http://sodipodi.sourceforge.net/DTD/sodipodi-0.dtd"
   xmlns="http://www.w3.org/2000/svg"
   xmlns:svg="http://www.w3.org/2000/svg">
  <sodipodi:namedview
     id="namedview7"
     pagecolor="#505050"
     bordercolor="#ffffff"
     borderopacity="1"
     inkscape:pageshadow="0"
     inkscape:pageopacity="0"
     inkscape:pagecheckerboard="1"
     inkscape:document-units="mm"
     showgrid="false"
     inkscape:zoom="0.70710678"
     inkscape:cx="376.88792"
     inkscape:cy="425.67828"
     inkscape:window-width="1620"
     inkscape:window-height="1010"
     inkscape:window-x="-6"
     inkscape:window-y="-6"
     inkscape:window-maximized="1"
     inkscape:current-layer="layer1"
     fit-margin-top="0"
     fit-margin-left="0"
     fit-margin-right="0"
     fit-margin-bottom="0" />
  <defs
     id="defs2" />
  <g
     inkscape:label="Layer 1"
     inkscape:groupmode="layer"
     id="layer1"
     transform="translate(5.650744,-40.533344)">
    <path
       style="fill:#e6e6e6;fill-opacity:1;stroke-width:0.325603"
       d="m 87.440006,264.77346 c -2.505334,-0.53986 -4.488562,-1.39034 -8.256563,-3.5407 -2.050529,-1.17021 -4.676852,-2.56002 -5.836267,-3.08845 -1.159424,-0.52844 -1.997918,-1.08173 -1.86334,-1.22955 0.134587,-0.14782 1.286728,-0.44633 2.560307,-0.66336 3.237519,-0.55171 6.154732,-0.16692 9.190856,1.21232 1.373968,0.62417 3.378095,1.32499 4.453616,1.55739 2.768694,0.59826 7.586201,0.20806 11.068093,-0.89648 2.157072,-0.68427 3.763472,-0.92901 7.028242,-1.07075 4.07799,-0.17704 4.37771,-0.14181 8.23319,0.96763 3.6049,1.03733 4.41653,1.1506 8.19542,1.14366 4.12475,-0.008 4.24151,-0.0288 7.04435,-1.28638 1.56755,-0.70329 3.66469,-1.44552 4.66031,-1.64942 2.31315,-0.47371 8.1793,0.0404 8.1793,0.71693 0,0.13607 -0.94372,0.67953 -2.09714,1.2077 -1.15343,0.52816 -3.77484,1.92126 -5.82538,3.09576 -5.54011,3.17327 -7.43198,3.72545 -12.73815,3.71794 -3.95524,-0.006 -4.68067,-0.10756 -8.00082,-1.12452 -5.11773,-1.56757 -7.93789,-1.54876 -13.714248,0.0915 -3.674709,1.04345 -4.717663,1.20469 -7.583849,1.17244 -1.82776,-0.0206 -3.941831,-0.1707 -4.697927,-0.33363 z m 1.697506,-11.59463 c -2.795529,-0.47134 -4.995423,-1.25593 -7.683174,-2.74018 -3.214595,-1.77518 -5.386967,-2.35682 -8.782922,-2.35158 -2.517646,0.004 -3.222865,0.16248 -6.808167,1.53108 -5.116341,1.95304 -7.680875,2.23235 -11.197281,1.21951 -1.352304,-0.38951 -3.048771,-1.08798 -3.769948,-1.55218 -1.283249,-0.82598 -4.179334,-4.0496 -4.179334,-4.652 0,-0.41866 0.194262,-0.38911 2.372271,0.36093 1.048431,0.36104 3.043512,0.82747 4.433518,1.0365 3.453834,0.51939 6.195808,0.048 10.855416,-1.86648 7.177756,-2.949 12.621114,-2.66629 19.288609,1.00183 4.820017,2.65172 8.223652,2.90108 14.706775,1.07742 6.920375,-1.94665 10.754595,-1.9264 17.160525,0.0907 1.70878,0.53805 3.87581,1.07954 4.81564,1.20331 2.79451,0.36801 6.32462,-0.50336 10.0027,-2.46908 4.0841,-2.1827 6.42149,-2.83629 10.1711,-2.84406 3.53003,-0.008 4.86073,0.29808 9.20498,2.11249 5.56904,2.32597 9.67595,2.46445 15.26596,0.51474 1.24793,-0.43526 2.26895,-0.72018 2.26895,-0.63317 0,0.476 -2.02608,3.28262 -2.89547,4.01093 -2.62979,2.20307 -7.30204,3.53426 -10.91364,3.10946 -1.06926,-0.12577 -3.11819,-0.6897 -4.55317,-1.25319 -4.29258,-1.6856 -5.58848,-1.99497 -8.35677,-1.99497 -3.27292,0 -5.02374,0.50007 -8.73933,2.49609 -5.70059,3.06239 -10.79985,3.54732 -16.89234,1.60646 -6.19834,-1.97459 -10.07239,-1.9875 -16.156283,-0.0539 -3.545029,1.12672 -6.930627,1.49254 -9.618615,1.03931 z m 7.444393,-11.12728 c -0.683519,-0.46601 -2.640845,-1.58399 -4.349615,-2.48437 -11.013368,-5.80317 -21.222457,-8.35606 -35.107603,-8.77905 -9.622464,-0.29314 -15.927486,0.42197 -36.843278,4.17871 -9.324302,1.67475 -10.022148,1.67065 -10.4179098,-0.0612 -0.165127,-0.72262 0.2432638,-1.91956 1.9280008,-5.65076 2.06556,-4.5746 2.178088,-4.74594 3.343169,-5.09051 2.633259,-0.77878 16.447839,-4.07746 20.397291,-4.87052 6.582908,-1.32185 11.635743,-1.69823 19.860645,-1.47939 7.988956,0.21256 12.436108,0.82221 19.285879,2.64389 7.745253,2.05982 15.195643,5.42665 20.650582,9.33197 1.458004,1.04382 2.650929,1.76316 2.650929,1.59852 0,-0.39837 -3.140141,-3.53355 -5.269968,-5.26165 -6.412017,-5.20258 -15.741449,-9.36561 -25.332675,-11.30407 -13.862495,-2.80171 -27.259618,-1.90721 -43.083527,2.87661 -2.507102,0.75794 -4.674142,1.37839 -4.815644,1.37879 -0.314965,9.6e-4 -0.139206,-4.47246 0.194437,-4.94863 0.131501,-0.18768 2.824935,-5.94601 5.985405,-12.79631 8.223222,-17.82375 8.133697,-17.6535 9.508036,-18.08205 8.374165,-2.61128 20.091052,-3.34333 29.570457,-1.8475 5.50675,0.86897 12.48946,3.06386 16.155706,5.07829 l 1.398091,0.76819 5.592361,-1.15954 c 5.356734,-1.11067 12.462506,-2.92399 15.922696,-4.06328 l 1.6311,-0.53707 v -11.4057 c 0,-10.97943 -0.0221,-11.4057 -0.5905,-11.4057 -1.092,0 -7.860499,1.36275 -11.183744,2.2517 -4.782993,1.27943 -10.260742,3.27261 -16.88437,6.14371 -3.202732,1.38826 -6.110126,2.52411 -6.460877,2.52411 -0.6748,0 -2.162914,-1.4134 -2.162914,-2.05433 0,-0.70308 0.699168,-1.86082 2.159603,-3.57605 3.000896,-3.52444 6.747646,-9.61407 8.547092,-13.89167 2.074836,-4.93226 2.500041,-7.26344 2.476553,-13.57773 -0.01841,-4.94229 -0.119351,-6.03151 -0.826164,-8.91268 -1.39322,-5.67916 -4.437825,-11.83879 -7.967899,-16.1201 -1.914191,-2.32154 -2.218776,-3.34464 -1.369195,-4.59905 0.489644,-0.72296 0.916689,-0.93022 2.089306,-1.01402 1.22921,-0.0878 4.358633,0.4731 6.419995,1.15076 0.915272,0.30089 4.70418,-6.70324 6.197165,-11.456022 0.971617,-3.093028 1.186355,-8.859945 0.462906,-12.431422 -1.011389,-4.993017 -3.655141,-9.599299 -7.54834,-13.151697 -2.066629,-1.885722 -2.414174,-2.851349 -1.419456,-3.943873 0.745484,-0.818776 1.606329,-0.659485 15.591169,2.885007 6.726448,1.704837 12.28386,3.099703 12.34979,3.099703 0.066,0 0.11988,-6.456966 0.11988,-14.348811 0,-15.09202 0.0714,-15.926595 1.41201,-16.491595 0.94093,-0.39657 2.24552,-0.21363 2.95102,0.413813 0.5371,0.477687 0.73817,1.083345 0.8496,2.559261 l 0.14599,1.933481 h 2.32451 c 4.03342,0 6.47799,0.952878 11.72221,4.569261 3.63498,2.506647 5.16307,3.039959 8.26679,2.885151 1.35547,-0.0676 2.46449,-3.4e-4 2.46449,0.149127 0,0.744554 -1.33843,2.996315 -2.37534,3.996253 -3.0531,2.944232 -6.3157,3.573859 -12.38556,2.390197 -4.28825,-0.836237 -6.5868,-0.78409 -8.82667,0.20025 l -1.26738,0.556963 v 6.252799 c 0,5.659588 0.0516,6.269726 0.5437,6.431216 0.29904,0.09813 3.40979,0.880372 6.9128,1.738315 9.71971,2.38053 9.18189,2.143464 11.86781,5.231217 5.52809,6.35511 8.01614,12.548321 8.01614,19.953676 0,5.45391 -1.14524,9.19121 -4.34078,14.16551 l -1.60025,2.491 -1.05793,-1.02022 c -4.59205,-4.4283 -11.67288,-7.71845 -18.11055,-8.41517 l -2.23094,-0.24145 0.002,3.71237 0.002,3.71236 6.91133,1.63678 c 21.54249,5.10183 21.9512,5.21026 22.75108,6.03559 1.32692,1.36915 3.94379,5.79235 4.88954,8.26466 1.29389,3.38235 1.78457,6.36405 1.78549,10.84991 0.002,6.92446 -1.52285,11.75812 -5.70312,18.08545 -1.3839,2.09469 -4.81091,6.14223 -5.20056,6.14223 -0.13852,0 -1.29954,-0.75119 -2.58005,-1.66932 -2.51194,-1.80104 -6.05753,-3.35608 -10.73985,-4.71031 -2.2466,-0.64977 -4.04602,-0.89743 -7.53416,-1.03696 l -4.58263,-0.18331 v 10.62464 c -1.8e-4,5.84356 0.10872,10.62465 0.2418,10.62465 0.81301,0 16.15272,-5.93227 23.21488,-8.9778 9.92783,-4.28134 10.55288,-4.63814 17.89288,-10.21391 15.28924,-11.61433 17.50135,-13.2256 18.15741,-13.2256 1.0172,0 2.31953,1.27185 2.31953,2.26522 0,1.37477 -0.48909,2.03024 -3.19038,4.2758 -6.89692,5.73333 -15.07739,13.33111 -15.97685,14.83882 -0.55223,0.92568 -5.132,12.46099 -4.9922,12.5741 0.0447,0.0362 1.40939,-0.0775 3.03273,-0.25244 4.14866,-0.44716 13.9771,-0.067 18.81117,0.72764 4.19725,0.68995 9.13791,1.91148 9.4887,2.34599 0.20219,0.25047 6.78793,13.90327 12.05128,24.98338 2.76528,5.8213 2.83431,6.02338 2.83431,8.29793 0,2.06352 -0.0624,2.31002 -0.54371,2.1458 -0.29903,-0.10205 -3.54959,-1.02416 -7.22347,-2.04913 -11.74093,-3.2756 -18.10733,-4.1514 -27.9618,-3.84656 -8.80733,0.27244 -14.90918,1.39994 -22.62537,4.18072 -4.72768,1.70377 -9.99515,4.42172 -13.46938,6.95002 -2.31099,1.68178 -7.5599,6.78739 -7.28653,7.08762 0.0742,0.0815 0.81275,-0.37809 1.64115,-1.02137 6.48073,-5.03246 16.81235,-9.42103 26.67182,-11.32942 10.68401,-2.06799 22.04469,-2.06786 33.24348,3.4e-4 3.64874,0.67385 20.44498,4.56333 22.33003,5.1709 0.78641,0.25348 4.61666,9.04427 4.4848,10.29305 -0.0628,0.59436 -0.39084,1.06157 -0.95185,1.35554 -0.74398,0.38983 -1.72035,0.2912 -7.45648,-0.75326 -23.72549,-4.32 -32.59704,-5.2106 -43.10609,-4.32734 -13.09465,1.10057 -22.02924,3.71613 -32.58345,9.53864 -4.20213,2.3182 -4.24172,2.33184 -5.44215,1.87434 -3.90702,-1.48908 -11.81861,-1.33457 -16.033901,0.31314 -0.256315,0.10019 -1.02526,-0.19912 -1.70877,-0.66513 z m 14.512575,-14.56338 c 3.38476,-3.73429 5.24756,-5.4796 7.84173,-7.34715 10.51044,-7.5665 23.32892,-11.68878 38.85098,-12.49403 7.35718,-0.38168 17.7848,0.85914 25.62877,3.04964 1.62175,0.45289 2.98007,0.78891 3.01848,0.74672 0.1052,-0.11553 -6.33327,-13.78421 -8.73383,-18.54168 -1.15628,-2.29153 -2.33498,-4.24395 -2.61933,-4.33868 -3.73677,-1.24501 -14.69258,-2.41434 -19.62424,-2.09454 -3.98866,0.25865 -9.17844,0.90028 -9.54587,1.18019 -0.14883,0.11337 -0.64638,0.92077 -1.10567,1.79422 -1.98905,3.78263 -6.10107,7.5885 -9.36473,8.66753 -0.86706,0.28666 -3.18426,0.75435 -5.14935,1.03932 -5.67195,0.82251 -9.90871,2.57793 -14.13625,5.85705 -4.4164,3.42561 -7.70741,7.8344 -8.82029,11.81605 -0.60067,2.14908 -0.69985,2.09358 -1.11999,-0.62669 -1.33727,-8.65828 -20.889695,-23.57 -36.272194,-27.6631 -8.330655,-2.21668 -18.192806,-2.61009 -26.41481,-1.05368 -2.522789,0.47755 -4.846402,1.02082 -5.163573,1.20726 -0.564134,0.3316 -10.788057,22.10821 -10.518568,22.40419 0.07514,0.0825 1.590616,-0.23361 3.367716,-0.70253 19.802227,-5.22523 41.262363,-2.96818 57.631716,6.06135 6.118994,3.37531 13.956333,10.19441 16.639443,14.47763 0.50257,0.80228 0.97154,1.45869 1.04216,1.45869 0.0706,0 2.12609,-2.20399 4.5677,-4.89776 z m 27.81735,-40.05885 c 0.92169,-1.55302 2.15706,-3.96773 2.74527,-5.36602 1.39837,-3.32418 3.54834,-9.39348 3.32751,-9.39348 -0.0951,0 -0.63939,0.31665 -1.20953,0.70365 -1.05912,0.71894 -2.25928,3.16306 -7.07547,14.40924 -0.94751,2.21251 -2.00803,4.46277 -2.35669,5.00058 -1.17018,1.80494 -0.62634,1.57249 1.14091,-0.48767 0.96372,-1.12344 2.50632,-3.31328 3.428,-4.8663 z M 84.391253,157.9605 c 10.350175,-4.01872 21.344927,-5.77981 31.529977,-5.05032 6.29773,0.45106 13.29267,2.42208 18.14676,5.11335 0.98895,0.54829 1.8585,0.9969 1.93235,0.9969 0.36757,0 3.42636,-5.75391 4.21365,-7.92629 1.3057,-3.60289 1.65824,-6.09973 1.51343,-10.71895 -0.10717,-3.41811 -0.27478,-4.50813 -1.07876,-7.01559 -0.52354,-1.63278 -1.40025,-3.73611 -1.94824,-4.67405 -0.96449,-1.65081 -1.0677,-1.72229 -3.22692,-2.23472 -1.22681,-0.29115 -6.42483,-1.53453 -11.55116,-2.76307 -5.12633,-1.22855 -13.97687,-3.31058 -19.66786,-4.62674 -5.690986,-1.31617 -13.310265,-3.13951 -16.93172,-4.05188 -3.621464,-0.91237 -6.612866,-1.62767 -6.647565,-1.58957 -0.0347,0.0381 0.694457,1.69121 1.620349,3.67354 3.400702,7.28093 4.673664,13.28262 4.405504,20.77076 -0.25687,7.17286 -1.886828,12.45427 -5.963721,19.32374 -1.137741,1.91707 -1.551682,2.85647 -1.185122,2.68956 0.309816,-0.14108 2.487385,-1.00358 4.839048,-1.91667 z m 21.045217,-47.6182 v -3.29388 l -4.42728,0.20539 c -4.215321,0.19555 -11.256184,1.28092 -12.242606,1.88722 -0.300825,0.18491 1.793818,0.84207 6.006866,1.88455 3.557816,0.88036 7.3076,1.8151 8.33287,2.0772 1.02527,0.26211 1.96898,0.48935 2.09714,0.50498 0.12815,0.0156 0.23301,-1.45382 0.23301,-3.26546 z m 26.23147,-1.86494 c 2.6082,-7.15948 1.59059,-15.288911 -2.74551,-21.932987 -2.16995,-3.324948 -2.18532,-3.333615 -9.03902,-5.097752 -21.363307,-5.498894 -31.379323,-8.019316 -31.470474,-7.919201 -0.05725,0.06289 0.390954,1.194073 0.99603,2.513737 3.769146,8.220444 3.423309,18.445462 -0.89306,26.403823 -0.590008,1.08783 -0.973846,1.97621 -0.852981,1.97418 0.120857,-0.002 0.918794,-0.23669 1.773184,-0.52146 4.197741,-1.39912 11.765161,-2.55066 16.687161,-2.5393 5.1741,0.0119 11.79243,1.28066 16.09029,3.08447 2.11867,0.88921 5.65056,3.01071 7.30114,4.38559 0.68351,0.56934 1.33242,1.03943 1.44203,1.04465 0.1096,0.005 0.42964,-0.62286 0.71121,-1.39575 z"
       id="path838" />
  </g>
</svg>
